<svg width="39" height="39" viewBox="0 0 39 39" fill="none" xmlns="http://www.w3.org/2000/svg">
<rect opacity="0.2" width="39" height="39" rx="4" fill="#0075FF"/>
<path d="M16.343 17.5625C16.8363 17.5625 17.2807 17.2657 17.4694 16.8102C17.6577 16.3547 17.5535 15.8305 17.2052 15.4818C16.8565 15.1335 16.3324 15.0289 15.8768 15.2176C15.4213 15.4063 15.1245 15.8507 15.1245 16.3435C15.1241 16.6669 15.2523 16.9774 15.4809 17.2061C15.7095 17.4347 16.0201 17.5629 16.343 17.5625ZM33 20C33 23.4476 31.6304 26.7546 29.1925 29.1925C26.7546 31.6304 23.4477 33 20 33C16.552 33 13.2454 31.6304 10.8075 29.1925C8.36956 26.7546 7 23.4477 7 20C7 16.552 8.36956 13.2454 10.8075 10.8075C13.2454 8.36956 16.5519 7 20 7C23.4464 7.00429 26.7503 8.37549 29.1873 10.8127C31.6244 13.2497 32.9953 16.5536 33 20ZM13.5003 16.3435C13.5003 17.0979 13.8001 17.8211 14.3332 18.3546C14.8668 18.8878 15.5899 19.1876 16.3439 19.1876C17.0984 19.1876 17.8215 18.8878 18.355 18.3546C18.8882 17.821 19.188 17.0979 19.188 16.3435C19.188 15.5895 18.8882 14.8663 18.355 14.3328C17.8215 13.7997 17.0984 13.4998 16.3439 13.4998C15.5903 13.5007 14.8672 13.8005 14.334 14.3337C13.8008 14.8668 13.501 15.5899 13.5002 16.3436L13.5003 16.3435ZM25.4522 15.7014V15.7018C25.7683 15.3827 25.7675 14.868 25.4496 14.5502C25.1322 14.2328 24.6176 14.2315 24.2985 14.5481L14.5484 24.2982C14.2314 24.6173 14.2314 25.1324 14.5484 25.452C14.8688 25.7659 15.3818 25.7659 15.7022 25.452L25.4522 15.7014ZM26.5001 23.656C26.5001 22.902 26.2007 22.1788 25.6675 21.6453C25.134 21.1122 24.4109 20.8124 23.6564 20.8124C22.9024 20.8124 22.1792 21.1122 21.6457 21.6453C21.1126 22.1789 20.8128 22.902 20.8128 23.656C20.8128 24.4105 21.1126 25.1336 21.6457 25.6671C22.1793 26.2003 22.9024 26.4997 23.6564 26.4997C24.4104 26.4992 25.1331 26.199 25.6663 25.6658C26.1995 25.1327 26.4997 24.4099 26.5001 23.6559L26.5001 23.656ZM23.6564 22.4374C23.1636 22.4374 22.7192 22.7342 22.5305 23.1897C22.3418 23.6452 22.446 24.1694 22.7947 24.5181C23.1434 24.8664 23.6675 24.9706 24.1231 24.7823C24.5786 24.5936 24.8754 24.1493 24.8754 23.656C24.8758 23.3326 24.7476 23.0225 24.519 22.7939C24.2904 22.5652 23.9798 22.437 23.6564 22.4374Z" fill="#0075FF"/>
</svg>
