<svg width="24" height="24" viewBox="0 0 24 24" fill="none" xmlns="http://www.w3.org/2000/svg">
<path d="M22.5659 9.48036C22.4935 9.17456 22.6831 8.86709 22.9889 8.79491C23.2947 8.72253 23.6021 8.91204 23.6743 9.21784C23.7808 9.66526 23.8622 10.1263 23.9178 10.5994C23.9718 11.0627 24 11.5307 24 12C24 15.3139 22.6571 18.3138 20.4851 20.4851C18.3139 22.6563 15.3134 24 12 24C8.68612 24 5.68624 22.6571 3.5149 20.4851C1.34372 18.3139 0 15.3134 0 12C0 8.68612 1.34286 5.68624 3.5149 3.5149C5.68608 1.34372 8.6866 0 12 0C13.0483 0 14.0693 0.136171 15.0469 0.392609C16.0512 0.655745 17.0052 1.04605 17.89 1.54682C18.1632 1.70056 18.2598 2.04673 18.1061 2.31972C17.9523 2.5929 17.6061 2.68953 17.3338 2.5358C16.535 2.08462 15.673 1.73173 14.7623 1.4935C13.885 1.26383 12.9601 1.14126 12.0007 1.14126C9.00158 1.14126 6.28662 2.35694 4.32144 4.32207C2.35631 6.28721 1.14062 9.00243 1.14062 12.0013C1.14062 15.0004 2.35631 17.7153 4.32144 19.6805C6.28657 21.6456 9.00179 22.8613 12.0007 22.8613C14.9997 22.8613 17.7147 21.6456 19.6799 19.6805C21.645 17.7154 22.8607 15.0002 22.8607 12.0013C22.8607 11.5668 22.8356 11.1424 22.7877 10.7293C22.7383 10.3093 22.6645 9.89244 22.5664 9.48082L22.5659 9.48036ZM5.21393 11.708C4.65484 11.1579 4.64707 10.2581 5.19719 9.69878C5.74728 9.1397 6.64715 9.13193 7.20645 9.68205L10.9441 13.3657L20.551 3.57086C21.1011 3.01177 22.001 3.00401 22.5603 3.55413C23.1194 4.10422 23.1271 5.00408 22.577 5.56338L11.9736 16.3735C11.4235 16.9326 10.5236 16.9404 9.96432 16.3902L5.21323 11.7076L5.21393 11.708Z" fill="#6DBF05"/>
</svg>
