<svg width="141" height="36" viewBox="0 0 141 36" fill="none" xmlns="http://www.w3.org/2000/svg">
<path d="M55.9376 7.21654H45.7671V11.8395H54.7819V14.6903H45.7671V19.493H56.066V22.3439H42.6338V4.36572H55.9376V7.21654Z" fill="white"/>
<path d="M72.3746 4.36572H75.508V22.3439H72.8626L62.9746 9.55371V22.3439H59.8413V4.36572H62.7692L72.3746 16.7963V4.36572Z" fill="white"/>
<path d="M87.7335 22.3439H84.5488V7.29359H78.8472V4.36572H93.4351V7.29359H87.7335V22.3439Z" fill="white"/>
<path d="M100.087 4.36572V22.3439H96.9536V4.36572H100.087Z" fill="white"/>
<path d="M116.447 22.3439L112.004 16.0772H108.049V22.3439H104.915V4.36572H112.928C113.956 4.36572 114.88 4.49414 115.702 4.75097C116.524 5.0078 117.243 5.39304 117.808 5.88102C118.373 6.369 118.836 6.95971 119.144 7.67884C119.452 8.39796 119.606 9.16846 119.606 10.0674C119.606 10.8122 119.503 11.4799 119.272 12.0706C119.067 12.6614 118.758 13.175 118.373 13.6373C117.988 14.0996 117.551 14.4849 117.012 14.793C116.498 15.1012 115.908 15.3581 115.266 15.5379L120.12 22.3439H116.447ZM115.42 7.98704C114.778 7.47338 113.853 7.21654 112.672 7.21654H108.049V13.2778H112.697C113.827 13.2778 114.726 12.9952 115.394 12.4559C116.062 11.9165 116.396 11.1717 116.396 10.2471C116.396 9.2455 116.062 8.47501 115.42 7.98704Z" fill="white"/>
<path d="M140.692 22.3444H137.353L135.53 18.0039H127.029L125.179 22.3444H121.943L129.854 4.23779H132.782L140.692 22.3444ZM131.266 8.01321L128.184 15.2045H134.374L131.266 8.01321Z" fill="white"/>
<path d="M48.7977 34.0298C48.5923 34.1839 48.3611 34.338 48.13 34.4408C47.8988 34.5692 47.6163 34.6462 47.3338 34.6976C47.0513 34.749 46.7431 34.7747 46.3835 34.7747C45.8442 34.7747 45.3305 34.6719 44.8939 34.4665C44.4316 34.261 44.0464 34.0042 43.7125 33.6703C43.3786 33.3364 43.1218 32.9255 42.9163 32.4632C42.7108 32.0009 42.6338 31.4872 42.6338 30.9736C42.6338 30.4342 42.7365 29.9462 42.9163 29.4839C43.0961 29.0216 43.3786 28.6107 43.7125 28.2512C44.0464 27.8916 44.4573 27.6348 44.9196 27.4293C45.3819 27.2238 45.8955 27.1211 46.4606 27.1211C46.7944 27.1211 47.1026 27.1468 47.3852 27.1982C47.6677 27.2495 47.9245 27.3266 48.1556 27.4293C48.3868 27.532 48.5923 27.6604 48.7977 27.7889C49.0032 27.9173 49.183 28.0971 49.3628 28.2512L48.5152 29.2014C48.207 28.9189 47.8988 28.7134 47.5649 28.5337C47.2311 28.3539 46.8458 28.2768 46.4349 28.2768C46.0753 28.2768 45.7671 28.3539 45.4589 28.4823C45.1507 28.6107 44.8939 28.8162 44.6884 29.0473C44.4573 29.2785 44.3032 29.561 44.1748 29.8692C44.0464 30.1774 43.995 30.5369 43.995 30.8965C43.995 31.2561 44.0464 31.6156 44.1748 31.9238C44.3032 32.2577 44.4573 32.5145 44.6884 32.7714C44.9196 33.0025 45.1764 33.208 45.4589 33.3364C45.7671 33.4648 46.0753 33.5419 46.4349 33.5419C46.8972 33.5419 47.2824 33.4648 47.5906 33.285C47.9245 33.1052 48.2327 32.8741 48.5409 32.5916L49.3884 33.4391C49.2087 33.696 49.0032 33.8757 48.7977 34.0298Z" fill="white"/>
<path d="M66.5189 34.6717H65.1321L64.3872 32.8739H60.8943L60.1239 34.6717H58.7883L62.0501 27.2236H63.2572L66.5189 34.6717ZM62.6408 28.7646L61.3823 31.7182H63.9249L62.6408 28.7646Z" fill="white"/>
<path d="M81.9544 30.8453C81.8003 31.1535 81.5949 31.436 81.3123 31.6415C81.0555 31.847 80.7216 32.0011 80.3621 32.1295C80.0025 32.2579 79.6173 32.2836 79.2063 32.2836H77.7424V34.6721H76.4583V27.2754H79.3861C79.8227 27.2754 80.208 27.3268 80.5418 27.4552C80.8757 27.5836 81.1839 27.7377 81.4408 27.9688C81.6976 28.2 81.8774 28.4568 82.0058 28.7393C82.1342 29.0218 82.2112 29.3814 82.2112 29.7667C82.1856 30.1776 82.1085 30.5371 81.9544 30.8453ZM80.4391 28.765C80.1566 28.5339 79.7714 28.4311 79.2834 28.4311H77.7681V31.1022H79.2834C79.7714 31.1022 80.1823 30.9738 80.4648 30.7426C80.7473 30.4858 80.9014 30.1776 80.9014 29.7667C80.8757 29.33 80.7216 28.9962 80.4391 28.765Z" fill="white"/>
<path d="M93.5635 27.2754V34.6721H92.2793V27.2754H93.5635Z" fill="white"/>
<path d="M107.355 34.6721H106.045V28.4825H103.708V27.2754H109.718V28.4825H107.381V34.6721H107.355Z" fill="white"/>
<path d="M125.872 34.6717H124.486L123.741 32.8739H120.248L119.477 34.6717H118.142L121.404 27.2236H122.611L125.872 34.6717ZM121.994 28.7646L120.736 31.7182H123.278L121.994 28.7646Z" fill="white"/>
<path d="M135.812 27.2754H137.096V33.5164H141V34.6978H135.812V27.2754Z" fill="white"/>
<path d="M34.3637 12.0712H29.4069C27.0698 7.70507 22.5495 4.80289 17.3359 4.80289C14.3823 4.80289 11.6856 5.70179 9.45117 7.26845C12.1736 4.23785 16.1031 2.38867 20.4949 2.38867C26.8386 2.38867 32.2577 6.42092 34.3637 12.0712Z" fill="white"/>
<path d="M34.3637 23.6284H29.4069C27.0698 27.9945 22.5495 30.9224 17.3359 30.9224C14.3823 30.9224 11.6856 30.0492 9.45117 28.4825C12.1736 31.5131 16.1031 33.3366 20.4949 33.3366C26.8386 33.3366 32.2577 29.2787 34.3637 23.6284Z" fill="white"/>
<path d="M20.418 34.5437C21.959 34.5437 23.423 34.3383 24.8355 33.953C22.6525 34.9033 20.2639 35.4426 17.7213 35.4426C7.93607 35.4426 0 27.5066 0 17.7213C0 7.93607 7.93607 0 17.7213 0C20.2639 0 22.6525 0.539341 24.8355 1.48961C23.423 1.10437 21.959 0.898907 20.418 0.898907C11.8142 0.898907 4.72568 7.34536 3.72404 15.6667H13.2268C14.3568 15.6667 15.2814 16.5142 15.2814 17.6699C15.2814 18.235 15.0503 18.7743 14.6907 19.1596C14.3055 19.5191 13.7918 19.8016 13.2268 19.8016H3.72404C3.67268 19.365 3.647 18.9798 3.62131 18.5689C3.647 19.0311 3.67268 19.4678 3.72404 19.9301C4.80273 28.1743 11.8656 34.5437 20.418 34.5437Z" fill="white"/>
</svg>
