<svg width="44" height="48" viewBox="0 0 44 48" fill="none" xmlns="http://www.w3.org/2000/svg">
<path d="M23 23.5C23 29.8513 17.8513 35 11.5 35C5.14873 35 0 29.8513 0 23.5C0 17.1487 5.14873 12 11.5 12C17.8513 12 23 17.1487 23 23.5ZM1.98501 23.5C1.98501 28.755 6.24502 33.015 11.5 33.015C16.755 33.015 21.015 28.755 21.015 23.5C21.015 18.245 16.755 13.985 11.5 13.985C6.24502 13.985 1.98501 18.245 1.98501 23.5Z" fill="#272727"/>
<path d="M16 20.8571C14.2642 20.8571 12.8571 22.2642 12.8571 24C12.8571 25.7358 14.2642 27.1429 16 27.1429L16 20.8571ZM42.2223 26.2223C43.4497 24.995 43.4497 23.005 42.2223 21.7777L22.2213 1.77664C20.994 0.549283 19.004 0.549282 17.7766 1.77664C16.5493 3.00401 16.5493 4.99395 17.7766 6.22132L35.5553 24L17.7766 41.7787C16.5493 43.006 16.5493 44.996 17.7766 46.2234C19.004 47.4507 20.994 47.4507 22.2213 46.2234L42.2223 26.2223ZM16 27.1429L40 27.1429L40 20.8571L16 20.8571L16 27.1429Z" fill="white"/>
<path d="M16 23C15.4477 23 15 23.4477 15 24C15 24.5523 15.4477 25 16 25L16 23ZM40.7071 24.7071C41.0976 24.3166 41.0976 23.6834 40.7071 23.2929L34.3431 16.9289C33.9526 16.5384 33.3195 16.5384 32.9289 16.9289C32.5384 17.3195 32.5384 17.9526 32.9289 18.3431L38.5858 24L32.9289 29.6569C32.5384 30.0474 32.5384 30.6805 32.9289 31.0711C33.3195 31.4616 33.9526 31.4616 34.3431 31.0711L40.7071 24.7071ZM16 25L40 25L40 23L16 23L16 25Z" fill="#0075FF"/>
</svg>
