<svg width="24" height="24" viewBox="0 0 24 24" fill="none" xmlns="http://www.w3.org/2000/svg">
<path d="M12.0334 7.41089C10.507 7.41089 9.27344 8.64457 9.27344 10.1708C9.27344 11.6972 10.5071 12.9308 12.0334 12.9308C13.5598 12.9308 14.7933 11.6971 14.7933 10.1708C14.7935 8.64462 13.5598 7.41089 12.0334 7.41089Z" fill="#0075FF"/>
<path d="M12 0C5.37156 0 0 5.37104 0 12C0 18.629 5.37104 24 12 24C18.629 24 24 18.629 24 12C23.9998 5.37156 18.6284 0 11.9995 0H12ZM15.6145 12.259L12.4514 17.7359C12.2546 18.0863 11.7507 18.0863 11.5489 17.7359L8.38583 12.259C6.78241 9.47976 8.78882 6 12 6C15.216 6 17.2226 9.47997 15.6145 12.259Z" fill="#0075FF"/>
</svg>
