<svg width="24" height="24" viewBox="0 0 24 24" fill="none" xmlns="http://www.w3.org/2000/svg">
<path d="M12.0336 7.41064C10.5072 7.41064 9.27368 8.64432 9.27368 10.1706C9.27368 11.697 10.5074 12.9305 12.0336 12.9305C13.56 12.9305 14.7936 11.6968 14.7936 10.1706C14.7938 8.64438 13.56 7.41064 12.0336 7.41064Z" fill="white"/>
<path d="M12 0C5.37156 0 0 5.37104 0 12C0 18.629 5.37104 24 12 24C18.629 24 24 18.629 24 12C23.9998 5.37156 18.6284 0 11.9995 0H12ZM15.6145 12.259L12.4514 17.7359C12.2546 18.0863 11.7507 18.0863 11.5489 17.7359L8.38583 12.259C6.78241 9.47976 8.78882 6 12 6C15.216 6 17.2226 9.47997 15.6145 12.259Z" fill="white"/>
</svg>
