<svg width="128" height="32" viewBox="0 0 128 32" fill="none" xmlns="http://www.w3.org/2000/svg">
<path d="M50.5043 6.51596H41.3217V10.6899H49.4608V13.2638H41.3217V17.6H50.6202V20.1739H38.4927V3.94205H50.5043V6.51596Z" fill="#272727"/>
<path d="M65.3447 3.94205H68.1737V20.1739H65.7853L56.8578 8.62611V20.1739H54.0288V3.94205H56.6723L65.3447 15.1652V3.94205Z" fill="#272727"/>
<path d="M79.2117 20.1739H76.3363V6.58552H71.1885V3.94205H84.3595V6.58552H79.2117V20.1739Z" fill="#272727"/>
<path d="M90.3654 3.94205V20.1739H87.5364V3.94205H90.3654Z" fill="#272727"/>
<path d="M105.136 20.1739L101.125 14.516H97.5536V20.1739H94.7246V3.94205H101.959C102.887 3.94205 103.722 4.05799 104.464 4.28987C105.206 4.52176 105.855 4.86958 106.365 5.31016C106.875 5.75074 107.293 6.28407 107.571 6.93335C107.849 7.58263 107.988 8.27828 107.988 9.08988C107.988 9.76234 107.896 10.3652 107.687 10.8986C107.501 11.4319 107.223 11.8957 106.875 12.3131C106.528 12.7305 106.133 13.0783 105.646 13.3565C105.183 13.6348 104.649 13.8667 104.07 14.029L108.452 20.1739H105.136ZM104.209 7.21161C103.629 6.74785 102.794 6.51596 101.728 6.51596H97.5536V11.9884H101.751C102.771 11.9884 103.583 11.7334 104.185 11.2464C104.788 10.7594 105.09 10.087 105.09 9.25219C105.09 8.34784 104.788 7.65219 104.209 7.21161Z" fill="#272727"/>
<path d="M127.026 20.1739H124.012L122.365 16.2551H114.69L113.02 20.1739H110.099L117.241 3.82611H119.884L127.026 20.1739ZM118.516 7.23481L115.733 13.7276H121.322L118.516 7.23481Z" fill="#272727"/>
<path d="M44.0579 30.7246C43.8724 30.8638 43.6637 31.0029 43.455 31.0956C43.2463 31.2116 42.9912 31.2812 42.7362 31.3275C42.4811 31.3739 42.2028 31.3971 41.8782 31.3971C41.3912 31.3971 40.9275 31.3044 40.5333 31.1188C40.1159 30.9333 39.768 30.7014 39.4666 30.4C39.1651 30.0985 38.9333 29.7275 38.7477 29.3102C38.5622 28.8928 38.4927 28.429 38.4927 27.9652C38.4927 27.4783 38.5854 27.0377 38.7477 26.6203C38.9101 26.2029 39.1651 25.8319 39.4666 25.5072C39.768 25.1826 40.1391 24.9507 40.5564 24.7652C40.9738 24.5797 41.4376 24.487 41.9477 24.487C42.2492 24.487 42.5275 24.5102 42.7825 24.5565C43.0376 24.6029 43.2695 24.6725 43.4782 24.7652C43.6869 24.858 43.8724 24.9739 44.0579 25.0899C44.2434 25.2058 44.4057 25.3681 44.568 25.5072L43.8028 26.3652C43.5246 26.1102 43.2463 25.9246 42.9449 25.7623C42.6434 25.6 42.2956 25.5304 41.9246 25.5304C41.5999 25.5304 41.3217 25.6 41.0434 25.716C40.7651 25.8319 40.5333 26.0174 40.3477 26.2261C40.1391 26.4348 39.9999 26.6899 39.884 26.9681C39.768 27.2464 39.7217 27.571 39.7217 27.8957C39.7217 28.2203 39.768 28.5449 39.884 28.8232C39.9999 29.1246 40.1391 29.3565 40.3477 29.5884C40.5564 29.7971 40.7883 29.9826 41.0434 30.0986C41.3217 30.2145 41.5999 30.2841 41.9246 30.2841C42.3419 30.2841 42.6898 30.2145 42.968 30.0522C43.2695 29.8899 43.5477 29.6812 43.826 29.4261L44.5912 30.1913C44.4289 30.4232 44.2434 30.5855 44.0579 30.7246Z" fill="#0075FF"/>
<path d="M60.0578 31.3043H58.8057L58.1332 29.6812H54.9796L54.2839 31.3043H53.0781L56.0231 24.5797H57.1129L60.0578 31.3043ZM56.5564 25.971L55.4202 28.6377H57.7158L56.5564 25.971Z" fill="#0075FF"/>
<path d="M73.994 27.8493C73.8549 28.1275 73.6694 28.3826 73.4143 28.5681C73.1825 28.7536 72.881 28.8928 72.5564 29.0087C72.2317 29.1246 71.8839 29.1478 71.5129 29.1478H70.1912V31.3044H69.0317V24.6261H71.6752C72.0694 24.6261 72.4172 24.6725 72.7187 24.7884C73.0201 24.9044 73.2984 25.0435 73.5303 25.2522C73.7622 25.4609 73.9245 25.6928 74.0404 25.9478C74.1564 26.2029 74.2259 26.5276 74.2259 26.8754C74.2027 27.2464 74.1332 27.571 73.994 27.8493ZM72.6259 25.971C72.3709 25.7623 72.023 25.6696 71.5825 25.6696H70.2143V28.0812H71.5825C72.023 28.0812 72.3941 27.9652 72.6491 27.7565C72.9042 27.5246 73.0433 27.2464 73.0433 26.8754C73.0201 26.4812 72.881 26.1797 72.6259 25.971Z" fill="#0075FF"/>
<path d="M84.4753 24.6261V31.3044H83.3159V24.6261H84.4753Z" fill="#0075FF"/>
<path d="M96.9273 31.3044H95.7447V25.716H93.6345V24.6261H99.0606V25.716H96.9505V31.3044H96.9273Z" fill="#0075FF"/>
<path d="M113.646 31.3043H112.394L111.722 29.6812H108.568L107.872 31.3043H106.667L109.611 24.5797H110.701L113.646 31.3043ZM110.145 25.971L109.009 28.6377H111.304L110.145 25.971Z" fill="#0075FF"/>
<path d="M122.62 24.6261H123.78V30.2609H127.304V31.3275H122.62V24.6261Z" fill="#0075FF"/>
<path d="M31.026 10.8986H26.5506C24.4405 6.95653 20.3593 4.33624 15.652 4.33624C12.9854 4.33624 10.5506 5.14783 8.5332 6.56232C10.9912 3.82609 14.539 2.15652 18.5042 2.15652C24.2318 2.15652 29.1245 5.79711 31.026 10.8986Z" fill="#0075FF"/>
<path d="M31.026 21.3334H26.5506C24.4405 25.2754 20.3593 27.9189 15.652 27.9189C12.9854 27.9189 10.5506 27.1305 8.5332 25.716C10.9912 28.4522 14.539 30.0986 18.5042 30.0986C24.2318 30.0986 29.1245 26.4348 31.026 21.3334Z" fill="#0075FF"/>
<path d="M18.4348 31.1884C19.8261 31.1884 21.1478 31.0029 22.4232 30.6551C20.4522 31.513 18.2957 32 16 32C7.16522 32 0 24.8348 0 16C0 7.16522 7.16522 0 16 0C18.2957 0 20.4522 0.486954 22.4232 1.34492C21.1478 0.997099 19.8261 0.811594 18.4348 0.811594C10.6667 0.811594 4.26667 6.63188 3.36232 14.1449H11.942C12.9623 14.1449 13.7971 14.9101 13.7971 15.9536C13.7971 16.4638 13.5884 16.9507 13.2638 17.2986C12.9159 17.6232 12.4522 17.8783 11.942 17.8783H3.36232C3.31594 17.4841 3.29276 17.1362 3.26957 16.7652C3.29276 17.1826 3.31594 17.5768 3.36232 17.9942C4.33623 25.4377 10.713 31.1884 18.4348 31.1884Z" fill="#272727"/>
</svg>
