<svg width="24" height="24" viewBox="0 0 24 24" fill="none" xmlns="http://www.w3.org/2000/svg">
<g clip-path="url(#clip0_79_1490)">
<path d="M11.9997 -0.00012207C8.81713 -0.00012207 5.76486 1.26424 3.51476 3.51464C1.26467 5.76504 0 8.81706 0 11.9996C0 15.1822 1.26436 18.2345 3.51476 20.4851C5.76516 22.7357 8.81718 23.9999 11.9997 23.9999C15.1823 23.9999 18.2346 22.7355 20.4852 20.4851C22.7358 18.2347 24 15.1822 24 11.9996C24 8.81706 22.7356 5.76473 20.4852 3.51464C18.2348 1.26454 15.1823 -0.00012207 11.9997 -0.00012207ZM6.15812 8.68048C6.30045 8.33742 6.54453 8.0462 6.85732 7.84587C7.1701 7.64534 7.5365 7.54556 7.90787 7.55982H11.9878H16.0678C16.435 7.54418 16.7983 7.63861 17.1115 7.83102C17.4244 8.02344 17.6729 8.30514 17.8247 8.63969C17.8865 8.7256 17.9029 8.83626 17.8687 8.93643C17.8342 9.0366 17.7534 9.11381 17.6519 9.1437L12.24 11.9638C12.101 12.0434 11.9302 12.0434 11.7912 11.9638L6.30941 9.11973C6.22112 9.0934 6.15104 9.02609 6.12095 8.93899C6.09106 8.85188 6.10491 8.75568 6.15816 8.68045L6.15812 8.68048ZM17.966 14.8941L17.9662 14.8943C17.8979 15.3294 17.675 15.7255 17.3381 16.0094C17.0012 16.2935 16.5732 16.4463 16.1325 16.4398H12.7941H7.9029C7.48777 16.4489 7.08156 16.3184 6.74937 16.069C6.41739 15.8196 6.17864 15.4658 6.07176 15.0646C6.0288 14.9082 6.00623 14.7468 6.00445 14.5847V10.6655C6.00445 10.3272 6.21568 10.2023 6.52055 10.3582C8.2246 11.2447 9.92706 12.1326 11.6279 13.0222C11.7423 13.0901 11.8729 13.1257 12.006 13.1257C12.139 13.1257 12.2695 13.0901 12.3839 13.0222C14.0766 12.1341 15.7719 11.2542 17.4694 10.3822C17.5175 10.3542 17.5692 10.3333 17.623 10.3198C17.7162 10.2875 17.8194 10.3055 17.896 10.3677C17.9726 10.4297 18.0118 10.5267 17.9999 10.6245V14.0157C18.0128 14.3089 18.0015 14.6029 17.9663 14.8943L17.966 14.8941Z" fill="#0075FF"/>
</g>
<defs>
<clipPath id="clip0_79_1490">
<rect width="24" height="24" fill="white"/>
</clipPath>
</defs>
</svg>
