<svg width="23" height="24" viewBox="0 0 23 24" fill="none" xmlns="http://www.w3.org/2000/svg">
<g clip-path="url(#clip0_130_5674)">
<path d="M11.9999 1.65518C9.25625 1.65518 6.62498 2.74515 4.68524 4.68515C2.7455 6.62515 1.65527 9.2562 1.65527 11.9998C1.65527 14.7434 2.74524 17.3747 4.68524 19.3149C6.62524 21.255 9.25629 22.3448 11.9999 22.3448C14.7435 22.3448 17.3748 21.2549 19.315 19.3149C21.2551 17.3749 22.3449 14.7434 22.3449 11.9998C22.3449 9.2562 21.255 6.62489 19.315 4.68515C17.375 2.74541 14.7435 1.65518 11.9999 1.65518ZM6.96399 9.13846C7.0867 8.84272 7.29711 8.59167 7.56676 8.41897C7.83639 8.2461 8.15226 8.16008 8.4724 8.17237H11.9896H15.5068C15.8234 8.15889 16.1366 8.24029 16.4065 8.40617C16.6763 8.57205 16.8905 8.81489 17.0214 9.1033C17.0746 9.17736 17.0888 9.27276 17.0593 9.35911C17.0296 9.44546 16.96 9.51202 16.8724 9.53779L12.207 11.9689C12.0872 12.0375 11.9399 12.0375 11.8201 11.9689L7.09442 9.51712C7.01831 9.49442 6.95789 9.4364 6.93195 9.36131C6.90618 9.28622 6.91813 9.20328 6.96404 9.13843L6.96399 9.13846ZM17.1432 14.495L17.1434 14.4952C17.0845 14.8703 16.8924 15.2118 16.6019 15.4565C16.3115 15.7014 15.9425 15.8331 15.5626 15.8275H12.6847H8.46812C8.11025 15.8354 7.76007 15.7229 7.4737 15.5079C7.18751 15.2928 6.98168 14.9879 6.88955 14.642C6.85251 14.5072 6.83306 14.3681 6.83153 14.2283V10.8497C6.83153 10.558 7.01362 10.4503 7.27644 10.5848C8.74544 11.349 10.2131 12.1144 11.6793 12.8813C11.7779 12.9398 11.8906 12.9706 12.0052 12.9706C12.1199 12.9706 12.2324 12.9398 12.331 12.8813C13.7903 12.1158 15.2518 11.3572 16.7151 10.6054C16.7566 10.5814 16.8011 10.5633 16.8475 10.5517C16.9279 10.5239 17.0168 10.5394 17.0829 10.593C17.1489 10.6464 17.1827 10.73 17.1724 10.8143V13.7378C17.1835 13.9906 17.1738 14.244 17.1434 14.4952L17.1432 14.495Z" fill="white"/>
</g>
<defs>
<clipPath id="clip0_130_5674">
<rect width="22.3907" height="24" fill="white"/>
</clipPath>
</defs>
</svg>
