<svg width="39" height="39" viewBox="0 0 39 39" fill="none" xmlns="http://www.w3.org/2000/svg">
<rect opacity="0.2" width="39" height="39" rx="4" fill="#0075FF"/>
<path d="M23.6588 12.1843L23.6588 7.57606C23.6588 7.25786 23.3849 7 23.047 7L15.9535 7C15.6156 7 15.3417 7.25786 15.3417 7.57606L15.3417 12.1843C15.3417 12.5025 15.6156 12.7604 15.9535 12.7604L18.9729 12.7604L18.9729 18.4587L13.3632 18.4587C11.6765 18.4587 10.304 19.7507 10.304 21.339L10.304 25.6278L8.61185 25.6278C8.27388 25.6278 8 25.8857 8 26.2039L8.00026 31.4239C8.00026 31.7421 8.27414 32 8.6121 32L13.2198 32C13.5578 32 13.8316 31.7421 13.8316 31.4239L13.8316 26.2036C13.8316 25.8854 13.5578 25.6276 13.2198 25.6276L11.5277 25.6276L11.5277 21.3388C11.5277 20.3859 12.3511 19.6106 13.3632 19.6106L18.9729 19.6106L18.9729 25.6273L17.2808 25.6273C16.9428 25.6273 16.6689 25.8852 16.6689 26.2034L16.6692 31.4239C16.6692 31.7421 16.9431 32 17.281 32L21.8887 32C22.2267 32 22.5006 31.7421 22.5006 31.4239L22.5006 26.2036C22.5006 25.8854 22.2267 25.6276 21.8887 25.6276L20.1966 25.6276L20.1966 19.6106L25.6371 19.6106C26.6492 19.6106 27.4726 20.3859 27.4726 21.3388L27.4726 25.6276L25.7805 25.6276C25.4425 25.6276 25.1686 25.8854 25.1686 26.2036L25.1689 31.4239C25.1689 31.7421 25.4428 32 25.7807 32L30.3882 32C30.7261 32 31 31.7421 31 31.4239L31 26.2036C31 25.8854 30.7261 25.6276 30.3882 25.6276L28.696 25.6276L28.696 21.3388C28.696 19.7507 27.3238 18.4585 25.6368 18.4585L20.1963 18.4585L20.1966 12.7604L23.0468 12.7604C23.3848 12.7604 23.6586 12.5025 23.6586 12.1843L23.6588 12.1843Z" fill="#0075FF"/>
</svg>
