<svg width="24" height="24" viewBox="0 0 24 24" fill="none" xmlns="http://www.w3.org/2000/svg">
<path d="M12 0C5.37156 0 0 5.37104 0 12C0 18.629 5.37104 24 12 24C18.629 24 24 18.629 24 12C23.9998 5.37156 18.6284 0 11.9995 0H12ZM18.9647 16.7281L17.0639 18.6289C16.4831 19.2048 15.6048 19.3633 14.8606 19.0177C13.1517 18.2257 10.8526 16.872 8.68314 14.5921C6.84961 12.6625 5.70228 10.6897 4.98225 9.14428C4.63663 8.40032 4.79029 7.51714 5.37105 6.93634L7.27188 5.03551C7.58386 4.71867 8.09264 4.71867 8.40951 5.03551L10.1135 6.7395C10.4303 7.05147 10.4303 7.56026 10.1184 7.882L8.84151 9.15886C9.2591 10.0277 9.94546 11.1845 11.0304 12.3461C12.408 13.815 13.8481 14.6645 14.8223 15.1397L16.0992 13.8628C16.4111 13.546 16.9199 13.546 17.2368 13.8628L18.9647 15.5907C19.2816 15.9027 19.2816 16.4115 18.9649 16.7283L18.9647 16.7281Z" fill="#0075FF"/>
</svg>
