<svg width="24" height="24" viewBox="0 0 24 24" fill="none" xmlns="http://www.w3.org/2000/svg">
<path d="M12.0001 1.65518C6.28593 1.65518 1.65527 6.28539 1.65527 12C1.65527 17.7146 6.28548 22.3448 12.0001 22.3448C17.7147 22.3448 22.3449 17.7146 22.3449 12C22.3448 6.28584 17.7143 1.65518 11.9997 1.65518H12.0001ZM18.0042 16.0759L16.3655 17.7146C15.8649 18.2111 15.1077 18.3477 14.4661 18.0498C12.993 17.367 11.011 16.2 9.14074 14.2346C7.56011 12.5711 6.57104 10.8705 5.95032 9.53818C5.65237 8.89684 5.78483 8.13547 6.28549 7.63478L7.92414 5.99614C8.19308 5.723 8.63169 5.723 8.90485 5.99614L10.3738 7.4651C10.6469 7.73404 10.6469 8.17265 10.378 8.45001L9.27727 9.55075C9.63726 10.2997 10.2289 11.297 11.1642 12.2984C12.3519 13.5646 13.5933 14.297 14.4331 14.7066L15.5339 13.6059C15.8028 13.3327 16.2414 13.3327 16.5146 13.6059L18.0042 15.0955C18.2773 15.3644 18.2773 15.803 18.0043 16.0762L18.0042 16.0759Z" fill="white"/>
</svg>
